<svg width="32" height="32" viewBox="0 0 32 32" fill="none" xmlns="http://www.w3.org/2000/svg">
<path d="M1 2H30V30H1V2Z" fill="white"/>
<path d="M29.3333 0H2.66667C1.95942 0 1.28115 0.280951 0.781048 0.781048C0.280951 1.28115 0 1.95942 0 2.66667V29.3333C0 30.0406 0.280951 30.7189 0.781048 31.219C1.28115 31.719 1.95942 32 2.66667 32H29.3333C30.0406 32 30.7189 31.719 31.219 31.219C31.719 30.7189 32 30.0406 32 29.3333V2.66667C32 1.95942 31.719 1.28115 31.219 0.781048C30.7189 0.280951 30.0406 0 29.3333 0ZM16.095 26.2767L15.185 27.185C13.8037 28.5304 11.9482 29.2776 10.02 29.2649C8.09185 29.2522 6.24628 28.4806 4.88284 27.1172C3.51941 25.7537 2.74782 23.9082 2.73512 21.98C2.72242 20.0518 3.46964 18.1963 4.815 16.815L8.815 12.815C10.0159 11.6173 11.5941 10.8719 13.282 10.7055C14.9698 10.539 16.6633 10.9616 18.075 11.9017C18.3689 12.0984 18.5727 12.4038 18.6415 12.7507C18.7102 13.0977 18.6384 13.4577 18.4417 13.7517C18.245 14.0456 17.9395 14.2494 17.5926 14.3181C17.2457 14.3869 16.8856 14.315 16.5917 14.1183C15.6939 13.5189 14.6161 13.2492 13.5418 13.3553C12.4675 13.4614 11.4632 13.9366 10.7 14.7L6.7 18.7C5.82479 19.5752 5.3331 20.7623 5.3331 22C5.3331 22.6129 5.45381 23.2197 5.68834 23.7859C5.92288 24.3522 6.26664 24.8666 6.7 25.3C7.13336 25.7334 7.64784 26.0771 8.21405 26.3117C8.78027 26.5462 9.38713 26.6669 10 26.6669C11.2377 26.6669 12.4248 26.1752 13.3 25.3L14.2083 24.39C14.4585 24.1398 14.7978 23.9993 15.1517 23.9993C15.5055 23.9993 15.8448 24.1398 16.095 24.39C16.3452 24.6402 16.4857 24.9795 16.4857 25.3333C16.4857 25.6872 16.3452 26.0265 16.095 26.2767ZM27.185 15.185L23.185 19.185C21.9842 20.3827 20.4059 21.1281 18.718 21.2945C17.0302 21.461 15.3367 21.0384 13.925 20.0983C13.6311 19.9016 13.4273 19.5962 13.3585 19.2493C13.2898 18.9023 13.3616 18.5423 13.5583 18.2483C13.755 17.9544 14.0605 17.7506 14.4074 17.6819C14.7543 17.6131 15.1144 17.685 15.4083 17.8817C16.3067 18.4793 17.3841 18.7478 18.4579 18.6418C19.5317 18.5358 20.5358 18.0617 21.3 17.3L25.3 13.3C26.1752 12.4248 26.6669 11.2377 26.6669 10C26.6669 8.76226 26.1752 7.57521 25.3 6.7C24.4248 5.82479 23.2377 5.3331 22 5.3331C20.7623 5.3331 19.5752 5.82479 18.7 6.7L17.7917 7.61C17.5415 7.86019 17.2022 8.00074 16.8483 8.00074C16.4945 8.00074 16.1552 7.86019 15.905 7.61C15.6548 7.35981 15.5143 7.02049 15.5143 6.66667C15.5143 6.31285 15.6548 5.97352 15.905 5.72333L16.815 4.815C18.1963 3.46964 20.0518 2.72242 21.98 2.73512C23.9082 2.74782 25.7537 3.51941 27.1172 4.88284C28.4806 6.24628 29.2522 8.09185 29.2649 10.02C29.2776 11.9482 28.5304 13.8037 27.185 15.185Z" fill="#0068C9"/>
</svg>
